<svg xmlns="http://www.w3.org/2000/svg" width="241" height="72" viewBox="0 0 241 72"><g id="Artwork_3" data-name="Artwork 3" transform="translate(120.5 36)"><g id="Group_2" data-name="Group 2" transform="translate(-120.5 -36)"><g id="Group_1" data-name="Group 1"><path id="Path_34" data-name="Path 34" d="M235.181,9.527,203.8,21.3V14.555L190.093,19.7v9.2l13.562-5.087v6.741l34.55-12.96A4.306,4.306,0,0,0,241,13.56h0a4.306,4.306,0,0,0-5.819-4.032Z" fill="#3B85F4"></path><path id="Path_35" data-name="Path 35" d="M235.181,25.627,203.8,37.4V30.655L190.093,35.8V45l13.562-5.087v6.741l34.55-12.96A4.306,4.306,0,0,0,241,29.66h0a4.306,4.306,0,0,0-5.819-4.032Z" fill="#3B85F4"></path><path id="Path_36" data-name="Path 36" d="M235.181,41.726,203.8,53.495V46.754L190.093,51.9v9.2l13.562-5.087v6.741l34.55-12.96a4.306,4.306,0,1,0-3.024-8.064Z" fill="#3B85F4"></path><path id="Path_37" data-name="Path 37" d="M0,44.221H19.764V39.834H5.306V31.811H16.045V27.424H5.306V19.4H19.764V15.013H0Z" fill="#3B85F4"></path><path id="Path_38" data-name="Path 38" d="M45.168,44.221h5.39L38.9,15.013H33.761l-11.7,29.208h5.432l2.632-6.727H42.494ZM31.588,33.106,36.309,20.7l4.722,12.41Z" fill="#3B85F4"></path><path id="Path_39" data-name="Path 39" d="M68.338,30.1a25.464,25.464,0,0,0-4.617-2.382q-2.883-1.212-3.99-1.776a5.446,5.446,0,0,1-1.776-1.379,3.217,3.217,0,0,1-.668-2.11,3.156,3.156,0,0,1,1.462-2.779,7.387,7.387,0,0,1,4.137-.982,16.762,16.762,0,0,1,7.354,1.755V16.016a18.549,18.549,0,0,0-3.823-1.233,22.421,22.421,0,0,0-4.45-.4,13.57,13.57,0,0,0-5.39,1,8.334,8.334,0,0,0-3.635,2.841,7.141,7.141,0,0,0-1.3,4.22,7.342,7.342,0,0,0,1.839,5.1,16.107,16.107,0,0,0,5.932,3.719q2.675,1.044,3.971,1.692a5.655,5.655,0,0,1,1.964,1.5,3.4,3.4,0,0,1,.668,2.152A3.348,3.348,0,0,1,64.559,39.5,7.288,7.288,0,0,1,60.3,40.543a21.077,21.077,0,0,1-4.513-.5,19.916,19.916,0,0,1-4.388-1.5v4.554a16.706,16.706,0,0,0,4.158,1.275,27.365,27.365,0,0,0,5.119.48q5.473,0,8.273-2.152a7.178,7.178,0,0,0,2.8-6.038,7.873,7.873,0,0,0-.857-3.823A8.027,8.027,0,0,0,68.34,30.1Z" fill="#3B85F4"></path><path id="Path_40" data-name="Path 40" d="M95.058,39.834H80.6V31.811H91.34V27.424H80.6V19.4H95.058V15.013H75.3V44.221H95.058Z" fill="#3B85F4"></path><path id="Path_41" data-name="Path 41" d="M96.938,21.239h8.232V44.221h7.4V21.239h8.274V15.013h-23.9Z" fill="#3B85F4"></path><path id="Path_42" data-name="Path 42" d="M143.236,37.995h-13.33V32.521h9.736V26.713h-9.736V21.239h13.33V15.013H122.511V44.221h20.725Z" fill="#3B85F4"></path><path id="Path_43" data-name="Path 43" d="M151.969,42.445a20.238,20.238,0,0,0,8.733,1.776h15.46V38.455h-4.888a11.6,11.6,0,0,0,2.945-3.907A11.2,11.2,0,0,0,175.41,29.6a15.332,15.332,0,0,0-2.047-7.939,14.1,14.1,0,0,0-5.62-5.369,17.7,17.7,0,0,0-15.962,0,14.242,14.242,0,0,0-5.641,5.369,15.2,15.2,0,0,0-2.068,7.939,14.331,14.331,0,0,0,2.068,7.772,13.492,13.492,0,0,0,5.828,5.077Zm.772-17.173a7.5,7.5,0,0,1,2.9-2.883,8.782,8.782,0,0,1,8.231,0,7.5,7.5,0,0,1,2.9,2.883,8.636,8.636,0,0,1,1.066,4.366,8.622,8.622,0,0,1-1.088,4.388,7.468,7.468,0,0,1-2.925,2.883,8.321,8.321,0,0,1-4.052,1,8.525,8.525,0,0,1-4.116-1,7.27,7.27,0,0,1-2.925-2.883,8.743,8.743,0,0,1-1.066-4.388,8.62,8.62,0,0,1,1.066-4.366Z" fill="#3B85F4"></path><path id="Path_44" data-name="Path 44" d="M4.925,57.058a6.751,6.751,0,0,0-1.248-.691q-.78-.351-1.079-.515a1.479,1.479,0,0,1-.48-.4.982.982,0,0,1-.18-.612.937.937,0,0,1,.395-.806,1.886,1.886,0,0,1,1.117-.285,4.289,4.289,0,0,1,1.988.509V52.973a4.763,4.763,0,0,0-1.033-.358A5.634,5.634,0,0,0,3.2,52.5a3.451,3.451,0,0,0-1.457.291,2.282,2.282,0,0,0-.982.824,2.185,2.185,0,0,0-.35,1.224,2.228,2.228,0,0,0,.5,1.479,4.327,4.327,0,0,0,1.6,1.079q.723.3,1.073.491a1.555,1.555,0,0,1,.531.436,1.038,1.038,0,0,1,.18.624.994.994,0,0,1-.395.836,1.87,1.87,0,0,1-1.152.3,5.386,5.386,0,0,1-1.219-.145,5.13,5.13,0,0,1-1.186-.436v1.321a4.287,4.287,0,0,0,1.124.37,6.9,6.9,0,0,0,1.383.14,3.448,3.448,0,0,0,2.236-.624,2.146,2.146,0,0,0,.757-1.752,2.415,2.415,0,0,0-.232-1.109A2.268,2.268,0,0,0,4.925,57.058Z" fill="#3B85F4"></path><path id="Path_45" data-name="Path 45" d="M16,53.058a4.368,4.368,0,0,0-4.269,0,3.969,3.969,0,0,0-1.5,1.564,5.113,5.113,0,0,0,0,4.606,3.92,3.92,0,0,0,1.5,1.558,4.2,4.2,0,0,0,2.14.552A4.142,4.142,0,0,0,16,60.78a3.979,3.979,0,0,0,1.5-1.558,5.1,5.1,0,0,0,0-4.6A3.962,3.962,0,0,0,16,53.058Zm.237,5.461a2.675,2.675,0,0,1-4.742,0,3.646,3.646,0,0,1-.006-3.176,2.669,2.669,0,0,1,4.753,0,3.646,3.646,0,0,1-.006,3.176Z" fill="#3B85F4"></path><path id="Path_46" data-name="Path 46" d="M22.117,61.155h1.434V57.494h2.9V56.343h-2.9V53.967h3.907V52.682H22.117Z" fill="#3B85F4"></path><path id="Path_47" data-name="Path 47" d="M30.846,53.955h2.383v7.2h1.433v-7.2h2.383V52.682h-6.2Z" fill="#3B85F4"></path><path id="Path_48" data-name="Path 48" d="M47.75,58.67,46.2,52.682H45.1L43.549,58.67l-1.57-5.988h-1.49l2.247,8.473h1.332l1.581-5.891,1.581,5.891h1.333l2.247-8.473H49.319Z" fill="#3B85F4"></path><path id="Path_49" data-name="Path 49" d="M56.626,52.682l-3.162,8.473h1.468l.711-1.951h3.342l.723,1.951h1.457l-3.15-8.473Zm-.588,5.249,1.276-3.6,1.276,3.6Z" fill="#3B85F4"></path><path id="Path_50" data-name="Path 50" d="M70.831,56.961a2.823,2.823,0,0,0,.429-1.588,2.663,2.663,0,0,0-.711-2,2.782,2.782,0,0,0-2.021-.691h-3.3v8.473h1.434v-3.1h1.558l1.525,3.1h1.468l-1.6-3.261a2.341,2.341,0,0,0,1.219-.933ZM69.4,56.428a1.72,1.72,0,0,1-1.128.352h-1.6V53.956h1.6q1.559,0,1.558,1.418A1.279,1.279,0,0,1,69.4,56.428Z" fill="#3B85F4"></path><path id="Path_51" data-name="Path 51" d="M75.325,61.155h5.341V59.882H76.759V57.555h2.9V56.282h-2.9V53.955h3.907V52.682H75.325Z" fill="#3B85F4"></path><path id="Path_52" data-name="Path 52" d="M95.972,57.058a6.751,6.751,0,0,0-1.248-.691q-.778-.351-1.079-.515a1.479,1.479,0,0,1-.48-.4.982.982,0,0,1-.18-.612.937.937,0,0,1,.395-.806,1.886,1.886,0,0,1,1.117-.285,4.289,4.289,0,0,1,1.988.509V52.973a4.763,4.763,0,0,0-1.033-.358,5.634,5.634,0,0,0-1.2-.115,3.451,3.451,0,0,0-1.457.291,2.282,2.282,0,0,0-.982.824,2.185,2.185,0,0,0-.35,1.224,2.228,2.228,0,0,0,.5,1.479,4.327,4.327,0,0,0,1.6,1.079q.723.3,1.073.491a1.555,1.555,0,0,1,.531.436,1.038,1.038,0,0,1,.18.624.994.994,0,0,1-.4.836,1.87,1.87,0,0,1-1.152.3,5.379,5.379,0,0,1-1.219-.145,5.13,5.13,0,0,1-1.186-.436v1.321a4.287,4.287,0,0,0,1.124.37,6.9,6.9,0,0,0,1.383.14,3.448,3.448,0,0,0,2.236-.624,2.146,2.146,0,0,0,.757-1.752,2.415,2.415,0,0,0-.232-1.109,2.268,2.268,0,0,0-.689-.794Z" fill="#3B85F4"></path><path id="Path_53" data-name="Path 53" d="M107.049,53.058a4.366,4.366,0,0,0-4.268,0,3.969,3.969,0,0,0-1.5,1.564,5.113,5.113,0,0,0,0,4.606,3.92,3.92,0,0,0,1.5,1.558,4.2,4.2,0,0,0,2.14.552,4.141,4.141,0,0,0,2.128-.558,3.965,3.965,0,0,0,1.5-1.558,5.1,5.1,0,0,0,0-4.6A3.948,3.948,0,0,0,107.049,53.058Zm.237,5.461a2.675,2.675,0,0,1-4.742,0,3.646,3.646,0,0,1-.006-3.176,2.669,2.669,0,0,1,4.753,0,3.646,3.646,0,0,1-.006,3.176Z" fill="#3B85F4"></path><path id="Path_54" data-name="Path 54" d="M114.6,52.682h-1.434v8.473h5.228V59.882H114.6Z" fill="#3B85F4"></path><path id="Path_55" data-name="Path 55" d="M127.087,57.882a2.08,2.08,0,0,1-.525,1.533,2.154,2.154,0,0,1-2.823,0,2.08,2.08,0,0,1-.525-1.533v-5.2H121.78v5.175a3.631,3.631,0,0,0,.853,2.539,3.849,3.849,0,0,0,5.041,0,3.649,3.649,0,0,0,.847-2.539V52.682h-1.434Z" fill="#3B85F4"></path><path id="Path_56" data-name="Path 56" d="M132.3,53.955h2.382v7.2h1.434v-7.2H138.5V52.682h-6.2Z" fill="#3B85F4"></path><rect id="Rectangle_11" data-name="Rectangle 11" width="1.434" height="8.473" transform="translate(142.342 52.682)" fill="#3B85F4"></rect><path id="Path_57" data-name="Path 57" d="M154.159,53.058a4.368,4.368,0,0,0-4.269,0,3.975,3.975,0,0,0-1.5,1.564,5.113,5.113,0,0,0,0,4.606,3.933,3.933,0,0,0,1.5,1.558,4.2,4.2,0,0,0,2.14.552,4.142,4.142,0,0,0,2.129-.558,3.979,3.979,0,0,0,1.5-1.558,5.1,5.1,0,0,0,0-4.6A3.962,3.962,0,0,0,154.159,53.058Zm.237,5.461a2.675,2.675,0,0,1-4.743,0,3.646,3.646,0,0,1-.006-3.176,2.669,2.669,0,0,1,4.753,0,3.646,3.646,0,0,1-.006,3.176Z" fill="#3B85F4"></path><path id="Path_58" data-name="Path 58" d="M165.322,58.585l-3.693-5.9h-1.354v8.473h1.434V55.24l3.692,5.915h1.355V52.682h-1.434Z" fill="#3B85F4"></path><path id="Path_59" data-name="Path 59" d="M175.4,57.058a6.686,6.686,0,0,0-1.248-.691q-.78-.351-1.078-.515a1.479,1.479,0,0,1-.48-.4.982.982,0,0,1-.18-.612.937.937,0,0,1,.4-.806,1.886,1.886,0,0,1,1.117-.285,4.289,4.289,0,0,1,1.988.509V52.973a4.763,4.763,0,0,0-1.033-.358,5.634,5.634,0,0,0-1.2-.115,3.451,3.451,0,0,0-1.457.291,2.282,2.282,0,0,0-.982.824,2.185,2.185,0,0,0-.35,1.224,2.228,2.228,0,0,0,.5,1.479,4.327,4.327,0,0,0,1.6,1.079q.723.3,1.073.491a1.555,1.555,0,0,1,.531.436,1.038,1.038,0,0,1,.18.624.994.994,0,0,1-.395.836,1.87,1.87,0,0,1-1.152.3,5.379,5.379,0,0,1-1.219-.145,5.13,5.13,0,0,1-1.186-.436v1.321a4.287,4.287,0,0,0,1.124.37,6.9,6.9,0,0,0,1.383.14,3.449,3.449,0,0,0,2.236-.624,2.146,2.146,0,0,0,.757-1.752,2.415,2.415,0,0,0-.232-1.109,2.268,2.268,0,0,0-.689-.794Z" fill="#3B85F4"></path></g><rect id="Rectangle_12" data-name="Rectangle 12" width="241" height="72" fill="none"></rect></g></g></svg>